<?xml version="1.0" encoding="UTF-8" standalone="no"?>
<!-- Created with Inkscape (http://www.inkscape.org/) -->

<svg
   width="256"
   height="256"
   viewBox="0 0 67.733332 67.733333"
   version="1.1"
   id="svg322"
   inkscape:export-filename="trash.png"
   inkscape:export-xdpi="96"
   inkscape:export-ydpi="96"
   inkscape:version="1.2.2 (b0a8486541, 2022-12-01)"
   sodipodi:docname="baseline.svg"
   xml:space="preserve"
   xmlns:inkscape="http://www.inkscape.org/namespaces/inkscape"
   xmlns:sodipodi="http://sodipodi.sourceforge.net/DTD/sodipodi-0.dtd"
   xmlns="http://www.w3.org/2000/svg"
   xmlns:svg="http://www.w3.org/2000/svg"><sodipodi:namedview
     id="namedview324"
     pagecolor="#000000"
     bordercolor="#666666"
     borderopacity="1.0"
     inkscape:showpageshadow="2"
     inkscape:pageopacity="0"
     inkscape:pagecheckerboard="0"
     inkscape:deskcolor="#d1d1d1"
     inkscape:document-units="mm"
     showgrid="false"
     inkscape:zoom="0.73406285"
     inkscape:cx="220.00841"
     inkscape:cy="163.47374"
     inkscape:window-width="1920"
     inkscape:window-height="1000"
     inkscape:window-x="0"
     inkscape:window-y="28"
     inkscape:window-maximized="1"
     inkscape:current-layer="layer1" /><defs
     id="defs319" /><g
     inkscape:label="Layer 1"
     inkscape:groupmode="layer"
     id="layer1"><g
       id="g1240"
       style="fill:#ffffff;fill-opacity:1"
       transform="matrix(2.0596573,0,0,2.0596573,-48.537122,178.86101)"><path
         d="m 41.692088,-77.044827 -1.638617,5.735135 c -0.109538,0.383381 -0.306838,0.695748 -0.557821,0.934006 h -2.846758 c -0.164465,-0.15838 -0.307975,-0.350891 -0.42172,-0.578379 l -1.372817,-2.745608 -1.66198,3.323987 H 30.50323 l 2.507138,-5.014304 c 0.759778,-1.519529 2.928223,-1.519529 3.687974,0 l 1.285108,2.570189 1.736143,-6.07658 c 0.574172,-2.00959 3.429741,-1.987761 3.973089,0.0304 l 2.285841,8.490294 H 43.48763 Z"
         fill="#000000"
         id="path1164"
         style="fill:#ffffff;fill-opacity:1;stroke-width:0.264583" /><path
         d="m 27.926167,-65.221577 h 2.68914 l -1.557433,3.114887 c -0.297034,0.594069 -1.019418,0.834866 -1.61349,0.537819 -0.594072,-0.297022 -0.834866,-1.019414 -0.537831,-1.613483 z"
         fill="#000000"
         id="path1166"
         style="fill:#ffffff;fill-opacity:1;stroke-width:0.264583" /><path
         d="m 47.757767,-63.767083 -0.39161,-1.454494 h -2.490893 l 0.886566,3.292925 c 0.545412,2.025888 3.415665,2.037265 3.97719,0.01582 l 0.919083,-3.308747 h -2.496317 z"
         fill="#000000"
         id="path1168"
         style="fill:#ffffff;fill-opacity:1;stroke-width:0.264583" /><path
         d="m 49.593499,-70.375686 h 2.496317 l 1.103657,-3.973222 c 0.1778,-0.639974 -0.196903,-1.302861 -0.836877,-1.480635 -0.639948,-0.177747 -1.302862,0.19693 -1.480609,0.836878 z"
         fill="#000000"
         id="path1170"
         style="fill:#ffffff;fill-opacity:1;stroke-width:0.264583" /><path
         d="m 27.901754,-66.939596 h 1.664348 v -1.718045 h -1.664348 z"
         fill="#000000"
         id="path1172"
         style="fill:#ffffff;fill-opacity:1;stroke-width:0.264583" /><path
         d="m 31.337831,-66.939596 h 1.664335 v -1.718045 h -1.664335 z"
         fill="#000000"
         id="path1174"
         style="fill:#ffffff;fill-opacity:1;stroke-width:0.264583" /><path
         d="m 34.666528,-66.939596 h 1.664335 v -1.718045 h -1.664335 z"
         fill="#000000"
         id="path1176"
         style="fill:#ffffff;fill-opacity:1;stroke-width:0.264583" /><path
         d="m 37.995224,-66.939596 h 1.664335 v -1.718045 h -1.664335 z"
         fill="#000000"
         id="path1178"
         style="fill:#ffffff;fill-opacity:1;stroke-width:0.264583" /><path
         d="m 41.32392,-66.939596 h 1.664335 v -1.718045 H 41.32392 Z"
         fill="#000000"
         id="path1180"
         style="fill:#ffffff;fill-opacity:1;stroke-width:0.264583" /><path
         d="m 44.652617,-66.939596 h 1.664335 v -1.718045 h -1.664335 z"
         fill="#000000"
         id="path1182"
         style="fill:#ffffff;fill-opacity:1;stroke-width:0.264583" /><path
         d="m 47.981313,-66.939596 h 1.664335 v -1.718045 h -1.664335 z"
         fill="#000000"
         id="path1184"
         style="fill:#ffffff;fill-opacity:1;stroke-width:0.264583" /><path
         d="m 51.31001,-66.939596 h 1.664335 v -1.718045 H 51.31001 Z"
         fill="#000000"
         id="path1186"
         style="fill:#ffffff;fill-opacity:1;stroke-width:0.264583" /></g></g></svg>
