<?xml version="1.0" encoding="UTF-8" standalone="no"?>
<!-- Created with Inkscape (http://www.inkscape.org/) -->

<svg
   width="256"
   height="256"
   viewBox="0 0 67.733332 67.733333"
   version="1.1"
   id="svg322"
   inkscape:export-filename="images/next.png"
   inkscape:export-xdpi="96"
   inkscape:export-ydpi="96"
   inkscape:version="1.2.2 (b0a8486541, 2022-12-01)"
   sodipodi:docname="next.svg"
   xml:space="preserve"
   xmlns:inkscape="http://www.inkscape.org/namespaces/inkscape"
   xmlns:sodipodi="http://sodipodi.sourceforge.net/DTD/sodipodi-0.dtd"
   xmlns="http://www.w3.org/2000/svg"
   xmlns:svg="http://www.w3.org/2000/svg"><sodipodi:namedview
     id="namedview324"
     pagecolor="#000000"
     bordercolor="#666666"
     borderopacity="1.0"
     inkscape:showpageshadow="2"
     inkscape:pageopacity="0"
     inkscape:pagecheckerboard="0"
     inkscape:deskcolor="#d1d1d1"
     inkscape:document-units="mm"
     showgrid="false"
     inkscape:zoom="0.73406285"
     inkscape:cx="-106.25793"
     inkscape:cy="341.25143"
     inkscape:window-width="1452"
     inkscape:window-height="991"
     inkscape:window-x="26"
     inkscape:window-y="23"
     inkscape:window-maximized="0"
     inkscape:current-layer="layer1" /><defs
     id="defs319" /><g
     inkscape:label="Layer 1"
     inkscape:groupmode="layer"
     id="layer1"><g
       class="st0"
       id="g1791"
       transform="matrix(0.26458333,0,0,0.26458333,-30.544717,-139.80012)"><g
         class="st1"
         id="g1789"><rect
           class="st2"
           width="512"
           height="512"
           id="rect1663"
           x="0"
           y="0" /><line
           class="st3"
           x1="0"
           y1="496"
           x2="512"
           y2="496"
           id="line1665" /><line
           class="st3"
           x1="0"
           y1="480"
           x2="512"
           y2="480"
           id="line1667" /><line
           class="st3"
           x1="0"
           y1="464"
           x2="512"
           y2="464"
           id="line1669" /><line
           class="st3"
           x1="0"
           y1="448"
           x2="512"
           y2="448"
           id="line1671" /><line
           class="st3"
           x1="0"
           y1="432"
           x2="512"
           y2="432"
           id="line1673" /><line
           class="st3"
           x1="0"
           y1="416"
           x2="512"
           y2="416"
           id="line1675" /><line
           class="st3"
           x1="0"
           y1="400"
           x2="512"
           y2="400"
           id="line1677" /><line
           class="st3"
           x1="0"
           y1="384"
           x2="512"
           y2="384"
           id="line1679" /><line
           class="st3"
           x1="0"
           y1="368"
           x2="512"
           y2="368"
           id="line1681" /><line
           class="st3"
           x1="0"
           y1="352"
           x2="512"
           y2="352"
           id="line1683" /><line
           class="st3"
           x1="0"
           y1="336"
           x2="512"
           y2="336"
           id="line1685" /><line
           class="st3"
           x1="0"
           y1="320"
           x2="512"
           y2="320"
           id="line1687" /><line
           class="st3"
           x1="0"
           y1="304"
           x2="512"
           y2="304"
           id="line1689" /><line
           class="st3"
           x1="0"
           y1="288"
           x2="512"
           y2="288"
           id="line1691" /><line
           class="st3"
           x1="0"
           y1="272"
           x2="512"
           y2="272"
           id="line1693" /><line
           class="st3"
           x1="0"
           y1="256"
           x2="512"
           y2="256"
           id="line1695" /><line
           class="st3"
           x1="0"
           y1="240"
           x2="512"
           y2="240"
           id="line1697" /><line
           class="st3"
           x1="0"
           y1="224"
           x2="512"
           y2="224"
           id="line1699" /><line
           class="st3"
           x1="0"
           y1="208"
           x2="512"
           y2="208"
           id="line1701" /><line
           class="st3"
           x1="0"
           y1="192"
           x2="512"
           y2="192"
           id="line1703" /><line
           class="st3"
           x1="0"
           y1="176"
           x2="512"
           y2="176"
           id="line1705" /><line
           class="st3"
           x1="0"
           y1="160"
           x2="512"
           y2="160"
           id="line1707" /><line
           class="st3"
           x1="0"
           y1="144"
           x2="512"
           y2="144"
           id="line1709" /><line
           class="st3"
           x1="0"
           y1="128"
           x2="512"
           y2="128"
           id="line1711" /><line
           class="st3"
           x1="0"
           y1="112"
           x2="512"
           y2="112"
           id="line1713" /><line
           class="st3"
           x1="0"
           y1="96"
           x2="512"
           y2="96"
           id="line1715" /><line
           class="st3"
           x1="0"
           y1="80"
           x2="512"
           y2="80"
           id="line1717" /><line
           class="st3"
           x1="0"
           y1="64"
           x2="512"
           y2="64"
           id="line1719" /><line
           class="st3"
           x1="0"
           y1="48"
           x2="512"
           y2="48"
           id="line1721" /><line
           class="st3"
           x1="0"
           y1="32"
           x2="512"
           y2="32"
           id="line1723" /><line
           class="st3"
           x1="0"
           y1="16"
           x2="512"
           y2="16"
           id="line1725" /><line
           class="st3"
           x1="496"
           y1="0"
           x2="496"
           y2="512"
           id="line1727" /><line
           class="st3"
           x1="480"
           y1="0"
           x2="480"
           y2="512"
           id="line1729" /><line
           class="st3"
           x1="464"
           y1="0"
           x2="464"
           y2="512"
           id="line1731" /><line
           class="st3"
           x1="448"
           y1="0"
           x2="448"
           y2="512"
           id="line1733" /><line
           class="st3"
           x1="432"
           y1="0"
           x2="432"
           y2="512"
           id="line1735" /><line
           class="st3"
           x1="416"
           y1="0"
           x2="416"
           y2="512"
           id="line1737" /><line
           class="st3"
           x1="400"
           y1="0"
           x2="400"
           y2="512"
           id="line1739" /><line
           class="st3"
           x1="384"
           y1="0"
           x2="384"
           y2="512"
           id="line1741" /><line
           class="st3"
           x1="368"
           y1="0"
           x2="368"
           y2="512"
           id="line1743" /><line
           class="st3"
           x1="352"
           y1="0"
           x2="352"
           y2="512"
           id="line1745" /><line
           class="st3"
           x1="336"
           y1="0"
           x2="336"
           y2="512"
           id="line1747" /><line
           class="st3"
           x1="320"
           y1="0"
           x2="320"
           y2="512"
           id="line1749" /><line
           class="st3"
           x1="304"
           y1="0"
           x2="304"
           y2="512"
           id="line1751" /><line
           class="st3"
           x1="288"
           y1="0"
           x2="288"
           y2="512"
           id="line1753" /><line
           class="st3"
           x1="272"
           y1="0"
           x2="272"
           y2="512"
           id="line1755" /><line
           class="st3"
           x1="256"
           y1="0"
           x2="256"
           y2="512"
           id="line1757" /><line
           class="st3"
           x1="240"
           y1="0"
           x2="240"
           y2="512"
           id="line1759" /><line
           class="st3"
           x1="224"
           y1="0"
           x2="224"
           y2="512"
           id="line1761" /><line
           class="st3"
           x1="208"
           y1="0"
           x2="208"
           y2="512"
           id="line1763" /><line
           class="st3"
           x1="192"
           y1="0"
           x2="192"
           y2="512"
           id="line1765" /><line
           class="st3"
           x1="176"
           y1="0"
           x2="176"
           y2="512"
           id="line1767" /><line
           class="st3"
           x1="160"
           y1="0"
           x2="160"
           y2="512"
           id="line1769" /><line
           class="st3"
           x1="144"
           y1="0"
           x2="144"
           y2="512"
           id="line1771" /><line
           class="st3"
           x1="128"
           y1="0"
           x2="128"
           y2="512"
           id="line1773" /><line
           class="st3"
           x1="112"
           y1="0"
           x2="112"
           y2="512"
           id="line1775" /><line
           class="st3"
           x1="96"
           y1="0"
           x2="96"
           y2="512"
           id="line1777" /><line
           class="st3"
           x1="80"
           y1="0"
           x2="80"
           y2="512"
           id="line1779" /><line
           class="st3"
           x1="64"
           y1="0"
           x2="64"
           y2="512"
           id="line1781" /><line
           class="st3"
           x1="48"
           y1="0"
           x2="48"
           y2="512"
           id="line1783" /><line
           class="st3"
           x1="32"
           y1="0"
           x2="32"
           y2="512"
           id="line1785" /><line
           class="st3"
           x1="16"
           y1="0"
           x2="16"
           y2="512"
           id="line1787" /></g></g><g
       id="g1965"
       style="fill:#ffffff;fill-opacity:1;stroke:#ffffff;stroke-opacity:1"
       transform="matrix(0.44783889,0,0,0.44783889,17.212158,66.140977)"><g
         id="g1801"
         transform="matrix(0.26458333,0,0,0.26458333,-30.544717,-139.80012)"
         style="fill:#ffffff;fill-opacity:1;stroke:#ffffff;stroke-opacity:1"><g
           id="g1799"
           style="fill:#ffffff;fill-opacity:1;stroke:#ffffff;stroke-opacity:1"><path
             d="M 79.2,432.8 C 32,385.6 6,322.8 6,256 6,189.2 32,126.4 79.2,79.2 126.4,32 189.2,6 256,6 322.8,6 385.6,32 432.8,79.2 480,126.4 506,189.2 506,256 506,322.8 480,385.6 432.8,432.8 385.6,480 322.8,506 256,506 189.2,506 126.4,480 79.2,432.8 Z M 26,256 C 26,382.8 129.2,486 256,486 382.8,486 486,382.8 486,256 486,129.2 382.8,26 256,26 129.2,26 26,129.2 26,256 Z"
             id="path1793"
             style="fill:#ffffff;fill-opacity:1;stroke:#ffffff;stroke-opacity:1" /><g
             id="g1797"
             style="fill:#ffffff;fill-opacity:1;stroke:#ffffff;stroke-opacity:1"><path
               class="st4"
               d="M 182.2,340.2 266.5,256 182.3,171.8 218.1,136 337.9,256 218.1,376 Z M 218,149.4 195.5,171.9 279.8,256.1 195.4,340.2 218,362.8 324.5,256 Z"
               id="path1795"
               style="fill:#ffffff;fill-opacity:1;stroke:#ffffff;stroke-opacity:1" /></g></g></g></g></g><style
     type="text/css"
     id="style1661">
	.st0{display:none;}
	.st1{display:inline;}
	.st2{fill:#FFFFFF;stroke:#000000;stroke-width:0.1;stroke-miterlimit:10;}
	.st3{fill:none;stroke:#000000;stroke-width:0.1;stroke-miterlimit:10;}
	.st4{stroke:#000000;stroke-width:10;stroke-miterlimit:10;}
</style></svg>
