<?xml version="1.0" encoding="UTF-8" standalone="no"?>
<!-- Created with Inkscape (http://www.inkscape.org/) -->

<svg
   width="256"
   height="256"
   viewBox="0 0 67.733332 67.733333"
   version="1.1"
   id="svg322"
   inkscape:export-filename="images/sample.png"
   inkscape:export-xdpi="96"
   inkscape:export-ydpi="96"
   inkscape:version="1.2.2 (b0a8486541, 2022-12-01)"
   sodipodi:docname="sample.svg"
   xml:space="preserve"
   xmlns:inkscape="http://www.inkscape.org/namespaces/inkscape"
   xmlns:sodipodi="http://sodipodi.sourceforge.net/DTD/sodipodi-0.dtd"
   xmlns="http://www.w3.org/2000/svg"
   xmlns:svg="http://www.w3.org/2000/svg"><sodipodi:namedview
     id="namedview324"
     pagecolor="#000000"
     bordercolor="#666666"
     borderopacity="1.0"
     inkscape:showpageshadow="2"
     inkscape:pageopacity="0"
     inkscape:pagecheckerboard="0"
     inkscape:deskcolor="#d1d1d1"
     inkscape:document-units="mm"
     showgrid="false"
     inkscape:zoom="0.73406285"
     inkscape:cx="220.00841"
     inkscape:cy="163.47374"
     inkscape:window-width="1920"
     inkscape:window-height="1000"
     inkscape:window-x="0"
     inkscape:window-y="28"
     inkscape:window-maximized="1"
     inkscape:current-layer="layer1" /><defs
     id="defs319" /><g
     inkscape:label="Layer 1"
     inkscape:groupmode="layer"
     id="layer1"><g
       id="g1419"
       transform="matrix(3.3705435,0,0,3.3705435,-96.189201,262.83862)"
       style="fill:#ffffff;fill-opacity:1"><g
         data-name="Layer 13"
         id="g1380"
         transform="matrix(0.26458333,0,0,0.26458333,30.108137,-76.399498)"
         style="fill:#ffffff;fill-opacity:1"><path
           d="m 21.61,62 a 5.53,5.53 0 0 1 -1.69,-0.26 4.83,4.83 0 0 1 -1,-0.42 5.88,5.88 0 0 1 -1.32,-1 5.65,5.65 0 0 1 -1.65,-4 V 11.27 a 1,1 0 0 1 0.4,-0.8 1,1 0 0 1 0.8,-0.18 h 8.92 a 1,1 0 0 1 0.8,0.18 1,1 0 0 1 0.4,0.8 v 23.36 a 1,1 0 0 1 -1,1 H 25.5 v 2.7 h 0.8 a 1,1 0 0 1 1,1 v 17 a 5.61,5.61 0 0 1 -0.68,2.7 5.75,5.75 0 0 1 -2.28,2.28 5.51,5.51 0 0 1 -2.7,0.68 z M 18,12.29 v 44.05 a 3.61,3.61 0 0 0 1,2.58 3.79,3.79 0 0 0 0.85,0.64 3.31,3.31 0 0 0 0.65,0.27 3.77,3.77 0 0 0 2.18,0 4.66,4.66 0 0 0 0.66,-0.28 3.83,3.83 0 0 0 1.48,-1.48 3.7,3.7 0 0 0 0.43,-1.74 v -16 a 2,2 0 0 1 -1.8,-2 v -2.66 a 2,2 0 0 1 1.8,-2 V 12.29 Z m 8,-2 z m -8.76,0 z"
           id="path1368"
           style="fill:#ffffff;fill-opacity:1" /><path
           d="m 21.61,62 a 5.53,5.53 0 0 1 -1.69,-0.26 4.83,4.83 0 0 1 -1,-0.42 5.63,5.63 0 0 1 -3,-5 V 21.43 a 1,1 0 0 1 0.41,-0.8 1,1 0 0 1 0.88,-0.16 6.11,6.11 0 0 0 3.12,0.19 6,6 0 0 0 2.16,-1 13.81,13.81 0 0 1 1.78,-1 10.21,10.21 0 0 1 1.72,-0.6 1,1 0 0 1 0.86,0.18 1,1 0 0 1 0.39,0.79 v 15.6 a 1,1 0 0 1 -1,1 H 25.5 v 2.7 h 0.8 a 1,1 0 0 1 1,1 v 17 a 5.63,5.63 0 0 1 -3,5 5.48,5.48 0 0 1 -1,0.43 A 5.85,5.85 0 0 1 21.61,62 Z M 18,22.69 v 33.65 a 3.61,3.61 0 0 0 1,2.58 3.27,3.27 0 0 0 0.85,0.64 3.31,3.31 0 0 0 0.65,0.27 3.77,3.77 0 0 0 2.18,0 4.66,4.66 0 0 0 0.66,-0.28 3.65,3.65 0 0 0 1.91,-3.22 v -16 a 2,2 0 0 1 -1.8,-2 v -2.66 a 2,2 0 0 1 1.8,-2 V 20.42 l -0.14,0.06 a 12.08,12.08 0 0 0 -1.54,0.87 7.89,7.89 0 0 1 -2.81,1.27 7.67,7.67 0 0 1 -2.76,0.07 z"
           id="path1370"
           style="fill:#ffffff;fill-opacity:1" /><path
           d="m 34.63,52 a 15,15 0 0 1 -9,-2.94 12.57,12.57 0 0 1 -1.63,-1.46 15,15 0 0 1 0,-21.21 13.54,13.54 0 0 1 1.68,-1.45 15,15 0 0 1 23,17.32 1.0030454,1.0030454 0 1 1 -1.88,-0.7 13,13 0 0 0 -19.9,-15 12.14,12.14 0 0 0 -1.45,1.25 13,13 0 0 0 0,18.39 11.11,11.11 0 0 0 1.44,1.25 13.08,13.08 0 0 0 14.63,0.6 1.0016986,1.0016986 0 1 1 1.06,1.7 15,15 0 0 1 -7.95,2.25 z m 10.51,-4.77 a 1,1 0 0 1 -0.66,-0.25 1,1 0 0 1 -0.09,-1.41 c 0.21,-0.23 0.4,-0.48 0.59,-0.72 a 1,1 0 1 1 1.58,1.22 c -0.21,0.28 -0.43,0.55 -0.67,0.82 a 1,1 0 0 1 -0.75,0.33 z"
           id="path1372"
           style="fill:#ffffff;fill-opacity:1" /><path
           d="m 35.94,48.14 h -2.67 a 2,2 0 0 1 -2,-2 V 40.37 H 25.5 a 2,2 0 0 1 -2,-2 v -2.7 a 2,2 0 0 1 2,-2 h 5.74 v -5.78 a 2,2 0 0 1 2,-2 h 2.67 a 2,2 0 0 1 2,2 v 5.74 h 5.74 a 2,2 0 0 1 2,2 v 2.66 a 2,2 0 0 1 -2,2 H 38 v 5.74 a 2,2 0 0 1 -2.06,2.11 z M 25.5,35.63 v 2.7 h 6.77 a 1,1 0 0 1 1,1 v 6.74 h 2.7 V 39.3 a 1,1 0 0 1 1,-1 h 6.74 V 35.6 H 37 a 1,1 0 0 1 -1,-1 v -6.71 h -2.7 v 6.77 a 1,1 0 0 1 -1,1 z"
           id="path1374"
           style="fill:#ffffff;fill-opacity:1" /><path
           d="M 17,12.27 H 16.89 A 2.75,2.75 0 0 1 14.44,9.53 V 4.77 A 2.73,2.73 0 0 1 16.92,2 1.0031949,1.0031949 0 1 1 17.08,4 0.74,0.74 0 0 0 16.39,4.75 v 4.77 a 0.77,0.77 0 0 0 0.67,0.76 1,1 0 0 1 0.88,1.1 1,1 0 0 1 -0.94,0.89 z"
           id="path1376"
           style="fill:#ffffff;fill-opacity:1" /><path
           d="m 26.27,12.27 a 1.0015114,1.0015114 0 0 1 -0.11,-2 0.77,0.77 0 0 0 0.66,-0.76 V 4.77 A 0.77,0.77 0 0 0 26.06,4 H 21 a 1,1 0 0 1 0,-2 h 5.06 a 2.77,2.77 0 0 1 2.76,2.77 v 4.75 a 2.76,2.76 0 0 1 -2.44,2.74 z"
           id="path1378"
           style="fill:#ffffff;fill-opacity:1" /></g></g></g></svg>
