<?xml version="1.0" encoding="UTF-8" standalone="no"?>
<!-- Created with Inkscape (http://www.inkscape.org/) -->

<svg
   width="1080"
   height="1920"
   viewBox="0 0 285.75 508"
   version="1.1"
   id="svg190"
   xml:space="preserve"
   inkscape:export-filename="splash.png"
   inkscape:export-xdpi="96"
   inkscape:export-ydpi="96"
   inkscape:version="1.2.2 (b0a8486541, 2022-12-01)"
   sodipodi:docname="splash.svg"
   xmlns:inkscape="http://www.inkscape.org/namespaces/inkscape"
   xmlns:sodipodi="http://sodipodi.sourceforge.net/DTD/sodipodi-0.dtd"
   xmlns="http://www.w3.org/2000/svg"
   xmlns:svg="http://www.w3.org/2000/svg"><sodipodi:namedview
     id="namedview192"
     pagecolor="#000000"
     bordercolor="#666666"
     borderopacity="1.0"
     inkscape:showpageshadow="2"
     inkscape:pageopacity="1"
     inkscape:pagecheckerboard="0"
     inkscape:deskcolor="#d1d1d1"
     inkscape:document-units="mm"
     showgrid="false"
     inkscape:zoom="0.28295621"
     inkscape:cx="-736.86314"
     inkscape:cy="1314.6911"
     inkscape:window-width="1920"
     inkscape:window-height="1000"
     inkscape:window-x="0"
     inkscape:window-y="28"
     inkscape:window-maximized="1"
     inkscape:current-layer="layer1" /><defs
     id="defs187"><rect
       x="155.26158"
       y="1080.327"
       width="888.40186"
       height="372.03338"
       id="rect1093" /></defs><g
     inkscape:label="Layer 1"
     inkscape:groupmode="layer"
     id="layer1"><g
       id="g374"
       transform="matrix(0.43034161,0,0,0.43034161,89.620641,74.141239)"
       style="fill:#fcffff;fill-opacity:1"><path
         d="M 1.3703605e-6,66.85107 V 205.00879 A 33.81051,33.81051 0 0 0 1.7128914,215.64355 l 5.72168,17.28956 a 26.79739,26.79739 0 0 1 1.35937,8.436 v 158.0332 a 3.5,3.5 0 0 0 6.9999996,0 V 241.36914 a 33.806,33.806 0 0 0 -1.71289,-10.63476 L 8.3593714,213.44482 a 26.79965,26.79965 0 0 1 -1.35937,-8.436 V 66.85107 A 6.20983,6.20983 0 0 1 13.203101,60.648 h 45.332 a 5.31138,5.31138 0 0 1 5.04785,3.64111 l 3.17286,9.53955 a 12.30538,12.30538 0 0 0 11.6914,8.43164 h 90.603519 a 12.30519,12.30519 0 0 0 11.6914,-8.43213 l 3.17286,-9.53955 a 5.31157,5.31157 0 0 1 5.04785,-3.64062 h 45.332 a 6.20983,6.20983 0 0 1 6.20312,6.20312 v 138.15767 a 26.79448,26.79448 0 0 1 -1.35937,8.43555 l -5.72159,17.29052 a 33.80082,33.80082 0 0 0 -1.71289,10.63428 V 473.79688 A 6.20984,6.20984 0 0 1 225.501,480 H 21.997051 a 6.20984,6.20984 0 0 1 -6.20313,-6.20312 v -55.68409 a 3.5,3.5 0 0 0 -6.9999996,0 v 55.68409 A 13.218,13.218 0 0 0 21.997051,487 H 225.501 a 13.218,13.218 0 0 0 13.20313,-13.20312 V 241.36914 a 26.79223,26.79223 0 0 1 1.35937,-8.43555 l 5.72168,-17.29052 a 33.80534,33.80534 0 0 0 1.71289,-10.63428 V 66.85107 A 13.218,13.218 0 0 0 234.2949,53.648 h -45.332 a 12.30215,12.30215 0 0 0 -11.69043,8.43213 l -3.17285,9.53857 a 5.314,5.314 0 0 1 -5.04883,3.6416 H 163.542 V 9.71875 A 9.72951,9.72951 0 0 0 153.82322,0 H 93.674781 a 9.72951,9.72951 0 0 0 -9.71875,9.71875 v 65.5415 h -5.50879 a 5.31415,5.31415 0 0 1 -5.04883,-3.64111 l -3.17285,-9.53857 A 12.302,12.302 0 0 0 58.535131,53.648 h -45.332 A 13.218,13.218 0 0 0 1.3703605e-6,66.85107 Z M 123.749,56.36792 A 15.2378,15.2378 0 1 1 138.98679,41.13013 15.23788,15.23788 0 0 1 123.749,56.36792 Z M 90.956001,9.71875 A 2.722,2.722 0 0 1 93.674781,7 h 60.148439 a 2.722,2.722 0 0 1 2.71875,2.71875 V 39.46851 A 39.24789,39.24789 0 0 0 120.79148,16.41479 H 90.956001 Z"
         id="path4"
         style="fill:#fcffff;fill-opacity:1" /><path
         d="m 34.560521,454.02588 a 9.82745,9.82745 0 0 0 9.81641,9.81641 H 203.12107 a 9.82745,9.82745 0 0 0 9.81641,-9.81641 v -48.30713 a 9.82745,9.82745 0 0 0 -9.81641,-9.81641 H 44.376931 a 9.82745,9.82745 0 0 0 -9.81641,9.81641 z m 7,-48.30713 a 2.81991,2.81991 0 0 1 2.81641,-2.81641 H 203.12107 a 2.81991,2.81991 0 0 1 2.81641,2.81641 v 48.30713 a 2.8196,2.8196 0 0 1 -2.81641,2.81641 H 44.376931 a 2.8196,2.8196 0 0 1 -2.81641,-2.81641 z"
         id="path6"
         style="fill:#fcffff;fill-opacity:1" /><path
         d="M 45.023411,378.5459 H 202.47459 A 10.4747,10.4747 0 0 0 212.93748,368.083 V 111.11572 A 10.47481,10.47481 0 0 0 202.47459,100.65234 H 45.023411 a 10.47481,10.47481 0 0 0 -10.46289,10.46338 V 368.083 a 10.4747,10.4747 0 0 0 10.46289,10.4629 z M 41.560521,142.55518 H 190.56052 a 3.5,3.5 0 0 0 0,-7 H 41.560521 v -24.43946 a 3.46726,3.46726 0 0 1 3.46289,-3.46338 H 202.47459 a 3.46726,3.46726 0 0 1 3.46289,3.46338 V 368.083 a 3.46684,3.46684 0 0 1 -3.46289,3.46289 H 45.023411 a 3.46684,3.46684 0 0 1 -3.46289,-3.46289 z"
         id="path8"
         style="fill:#fcffff;fill-opacity:1" /><path
         d="m 54.542001,287.99561 h 17.00488 a 7.57266,7.57266 0 0 0 7.542,-6.772 l 6.15137,-56.98535 5.30274,56.87647 a 7.55278,7.55278 0 0 0 7.55371,6.88086 h 8.879879 a 7.58589,7.58589 0 0 0 7.18652,-5.15381 l 2.87207,-8.48731 2.64942,8.35059 a 7.5597,7.5597 0 0 0 7.23047,5.29053 h 11.20214 a 7.55726,7.55726 0 0 0 7.48633,-6.36182 l 4.44235,-27.17377 3.792,27.00391 a 7.61931,7.61931 0 0 0 7.51172,6.53174 h 31.6064 a 3.5,3.5 0 0 0 0,-7 h -31.60641 a 0.58909,0.58909 0 0 1 -0.58008,-0.50489 l -5.99707,-42.71289 a 4.59011,4.59011 0 0 0 -9.0752,-0.10156 l -7.002,42.82764 a 0.58455,0.58455 0 0 1 -0.57813,0.4917 H 126.915 a 0.58453,0.58453 0 0 1 -0.5586,-0.4087 l -4.873,-15.35693 a 4.57977,4.57977 0 0 0 -4.33008,-3.20117 h -0.0449 a 4.581,4.581 0 0 0 -4.34766,3.11816 l -5.22754,15.44922 a 0.58792,0.58792 0 0 1 -0.55664,0.39942 h -8.879879 a 0.58339,0.58339 0 0 1 -0.584,-0.53125 l -7.52734,-80.73975 a 4.57508,4.57508 0 0 0 -4.53711,-4.16309 h -0.0332 a 4.57481,4.57481 0 0 0 -4.56153,4.09717 l -8.72363,80.81445 a 0.5853,0.5853 0 0 1 -0.583,0.52247 h -17.00489 a 3.5,3.5 0 0 0 0,7 z"
         id="path10"
         style="fill:#fcffff;fill-opacity:1" /><rect
         x="98.11277"
         y="328.03735"
         width="51.272461"
         height="32.120121"
         rx="2.7907701"
         id="rect12"
         style="fill:#fcffff;fill-opacity:1" /><rect
         x="52.334938"
         y="328.03735"
         width="38.07373"
         height="32.120121"
         rx="2.7907701"
         id="rect14"
         style="fill:#fcffff;fill-opacity:1" /><path
         d="m 159.8801,328.03735 h 32.49243 a 2.79053,2.79053 0 0 1 2.79053,2.79053 v 26.53882 a 2.79077,2.79077 0 0 1 -2.79077,2.79077 H 159.8801 a 2.79077,2.79077 0 0 1 -2.79077,-2.79077 v -26.53858 a 2.79077,2.79077 0 0 1 2.79077,-2.79077 z"
         id="path16"
         style="fill:#fcffff;fill-opacity:1" /></g><text
       xml:space="preserve"
       transform="matrix(0.26458333,0,0,0.26458333,-15.935459,65.328412)"
       id="text1091"
       style="font-style:normal;font-variant:normal;font-weight:normal;font-stretch:normal;font-size:64px;line-height:1.25;font-family:Hack;-inkscape-font-specification:Hack;white-space:pre;shape-inside:url(#rect1093);fill:#ffffff;fill-opacity:1;stroke:none"
       x="362.54688"
       y="0"><tspan
         x="252.68164"
         y="1136.9512"
         id="tspan1198"><tspan
           style="text-align:center;text-anchor:middle"
           id="tspan1196">Mobile Colorimeter
</tspan></tspan><tspan
         x="599.46289"
         y="1216.9512"
         id="tspan1202"><tspan
           style="text-align:center;text-anchor:middle"
           id="tspan1200">
</tspan></tspan><tspan
         x="194.88477"
         y="1296.9512"
         id="tspan1206"><tspan
           style="text-align:center;text-anchor:middle"
           id="tspan1204">Utilisez votre webcam
</tspan></tspan><tspan
         x="214.15039"
         y="1376.9512"
         id="tspan1210"><tspan
           style="text-align:center;text-anchor:middle"
           id="tspan1208">comme un colorimètre</tspan></tspan></text></g></svg>
