<?xml version="1.0" encoding="UTF-8" standalone="no"?>
<!-- Created with Inkscape (http://www.inkscape.org/) -->

<svg
   width="256"
   height="256"
   viewBox="0 0 67.733332 67.733333"
   version="1.1"
   id="svg322"
   inkscape:export-filename="trash.png"
   inkscape:export-xdpi="96"
   inkscape:export-ydpi="96"
   inkscape:version="1.2.2 (b0a8486541, 2022-12-01)"
   sodipodi:docname="trash.svg"
   xmlns:inkscape="http://www.inkscape.org/namespaces/inkscape"
   xmlns:sodipodi="http://sodipodi.sourceforge.net/DTD/sodipodi-0.dtd"
   xmlns="http://www.w3.org/2000/svg"
   xmlns:svg="http://www.w3.org/2000/svg">
  <sodipodi:namedview
     id="namedview324"
     pagecolor="#000000"
     bordercolor="#666666"
     borderopacity="1.0"
     inkscape:showpageshadow="2"
     inkscape:pageopacity="0"
     inkscape:pagecheckerboard="0"
     inkscape:deskcolor="#d1d1d1"
     inkscape:document-units="mm"
     showgrid="false"
     inkscape:zoom="0.73406285"
     inkscape:cx="220.00841"
     inkscape:cy="163.47374"
     inkscape:window-width="1920"
     inkscape:window-height="1000"
     inkscape:window-x="0"
     inkscape:window-y="28"
     inkscape:window-maximized="1"
     inkscape:current-layer="layer1" />
  <defs
     id="defs319" />
  <g
     inkscape:label="Layer 1"
     inkscape:groupmode="layer"
     id="layer1">
    <g
       data-name="Layer 2"
       id="g12"
       transform="matrix(0.59889749,0,0,0.59889749,3.9217922,3.9217922)"
       style="fill:#ffffff;fill-opacity:1">
      <path
         d="M 21.35,82.61 A 12.43,12.43 0 0 0 33.74,95 H 66.26 A 12.43,12.43 0 0 0 78.65,82.61 V 32 h -57.3 z m 51.32,0 A 6.41,6.41 0 0 1 66.26,89 H 33.74 A 6.41,6.41 0 0 1 27.33,82.59 V 38 h 45.34 z"
         id="path2"
         style="fill:#ffffff;fill-opacity:1" />
      <path
         d="M 82,22.85 H 78.25 C 76.87,16.44 72.02,11.67 66.25,11.67 H 53 V 8 a 3,3 0 0 0 -6,0 v 3.68 H 33.74 c -5.76,0 -10.61,4.77 -12,11.18 H 18 a 3,3 0 0 0 0,6 h 64 a 3,3 0 0 0 0,-6 z M 47,17.64 h 19.26 c 2.49,0 4.7,2.09 5.76,5 H 28 c 1.06,-2.95 3.27,-5 5.76,-5 z"
         id="path4"
         style="fill:#ffffff;fill-opacity:1" />
      <path
         d="m 35.1,85.31 a 3,3 0 0 0 3,-3 V 44.69 a 3,3 0 0 0 -6,0 v 37.63 a 3,3 0 0 0 3,2.99 z"
         id="path6"
         style="fill:#ffffff;fill-opacity:1" />
      <path
         d="m 64.9,85.31 a 3,3 0 0 0 3,-3 V 44.69 a 3,3 0 0 0 -6,0 v 37.63 a 3,3 0 0 0 3,2.99 z"
         id="path8"
         style="fill:#ffffff;fill-opacity:1" />
      <path
         d="m 50,85.31 a 3,3 0 0 0 3,-3 V 44.69 a 3,3 0 0 0 -6,0 v 37.63 a 3,3 0 0 0 3,2.99 z"
         id="path10"
         style="fill:#ffffff;fill-opacity:1" />
    </g>
  </g>
</svg>
